<svg width="13" height="13" viewBox="0 0 13 13" fill="none" xmlns="http://www.w3.org/2000/svg">
<g clip-path="url(#clip0_61_271)">
<path d="M11.6488 6.19751C11.3689 6.1579 11.1144 6.35209 11.0754 6.62976L10.6035 9.98945C10.5497 10.3717 10.3866 11.5346 8.44635 11.5346H4.55406C2.61381 11.5346 2.4503 10.3715 2.39667 9.98945L1.92481 6.62976C1.88581 6.35209 1.63049 6.1579 1.35139 6.19751C1.07372 6.23651 0.880142 6.49326 0.919142 6.77114L1.391 10.1306C1.61017 11.691 2.73345 12.5502 4.55406 12.5502H8.44635C10.267 12.5502 11.3902 11.691 11.6092 10.1306L12.0811 6.77114C12.1201 6.49326 11.9265 6.23651 11.6488 6.19751Z" fill="white"/>
<path d="M12.4197 4.33813H10.8895C10.6799 2.15921 8.8398 0.449707 6.60705 0.449707H6.39316C4.16021 0.449707 2.3203 2.15921 2.11047 4.33813H0.58033C0.299814 4.33813 0.0725174 4.56543 0.0725174 4.84594C0.0725174 5.12646 0.299814 5.35375 0.58033 5.35375H12.4197C12.7002 5.35375 12.9275 5.12646 12.9275 4.84594C12.9275 4.56543 12.7002 4.33813 12.4197 4.33813ZM6.39316 1.46533H6.60705C8.27917 1.46533 9.66063 2.72085 9.86599 4.33813H3.13422C3.33938 2.72085 4.72103 1.46533 6.39316 1.46533Z" fill="white"/>
<path d="M4.23678 10.4207C3.99303 10.4207 3.77792 10.2448 3.73649 9.99637L3.3867 7.89768C3.3406 7.62103 3.52747 7.3594 3.80413 7.31329C4.08119 7.26657 4.34241 7.45406 4.38852 7.73071L4.7383 9.8294C4.78441 10.1061 4.59753 10.3677 4.32088 10.4138C4.29264 10.4187 4.26441 10.4207 4.23678 10.4207Z" fill="white"/>
<path d="M8.76302 10.4207C8.73519 10.4207 8.70737 10.4185 8.67893 10.4138C8.40227 10.3677 8.2154 10.1061 8.26151 9.8294L8.61149 7.73071C8.6578 7.45426 8.91862 7.26657 9.19588 7.31329C9.47254 7.3594 9.65941 7.62102 9.6133 7.89768L9.26332 9.99637C9.22188 10.2448 9.00677 10.4207 8.76302 10.4207Z" fill="white"/>
<path d="M6.5 10.4207C6.21948 10.4207 5.99219 10.1934 5.99219 9.9129V7.81421C5.99219 7.53369 6.21948 7.3064 6.5 7.3064C6.78052 7.3064 7.00781 7.53369 7.00781 7.81421V9.9129C7.00781 10.1934 6.78052 10.4207 6.5 10.4207Z" fill="white"/>
</g>
<defs>
<clipPath id="clip0_61_271">
<rect width="13" height="13" fill="white"/>
</clipPath>
</defs>
</svg>
