<svg width="16" height="16" viewBox="0 0 16 16" fill="none" xmlns="http://www.w3.org/2000/svg">
<path d="M6.66666 12C5.61183 12 4.58068 11.6872 3.70362 11.1012C2.82656 10.5152 2.14297 9.68223 1.73931 8.70769C1.33564 7.73315 1.23002 6.66079 1.43581 5.62623C1.6416 4.59166 2.14955 3.64135 2.89543 2.89547C3.64131 2.14959 4.59162 1.64164 5.62618 1.43585C6.66075 1.23007 7.7331 1.33568 8.70764 1.73935C9.68218 2.14302 10.5151 2.82661 11.1012 3.70367C11.6872 4.58073 12 5.61188 12 6.66671C11.9984 8.08071 11.436 9.43634 10.4361 10.4362C9.4363 11.436 8.08066 11.9985 6.66666 12ZM6.66666 2.66671C5.87554 2.66671 5.10218 2.90131 4.44438 3.34083C3.78659 3.78036 3.2739 4.40507 2.97115 5.13598C2.6684 5.86688 2.58918 6.67115 2.74352 7.44707C2.89786 8.223 3.27883 8.93573 3.83824 9.49514C4.39765 10.0545 5.11038 10.4355 5.8863 10.5899C6.66223 10.7442 7.46649 10.665 8.1974 10.3622C8.9283 10.0595 9.55302 9.54679 9.99254 8.88899C10.4321 8.23119 10.6667 7.45784 10.6667 6.66671C10.6656 5.60617 10.2438 4.58937 9.49392 3.83945C8.74401 3.08954 7.72721 2.66777 6.66666 2.66671Z" fill="white"/>
<path d="M13.3333 14C13.1565 14 12.987 13.9297 12.862 13.8047L9.52866 10.4714C9.40722 10.3456 9.34003 10.1772 9.34155 10.0024C9.34307 9.82763 9.41318 9.66042 9.53678 9.53681C9.66039 9.41321 9.8276 9.3431 10.0024 9.34158C10.1772 9.34006 10.3456 9.40726 10.4713 9.52869L13.8047 12.862C13.8979 12.9553 13.9613 13.074 13.9871 13.2033C14.0128 13.3326 13.9996 13.4667 13.9491 13.5885C13.8987 13.7103 13.8132 13.8144 13.7036 13.8876C13.594 13.9609 13.4652 14 13.3333 14Z" fill="white"/>
<path d="M8.66667 7.33333H4.66667C4.48986 7.33333 4.32029 7.2631 4.19526 7.13807C4.07024 7.01305 4 6.84348 4 6.66667C4 6.48986 4.07024 6.32029 4.19526 6.19526C4.32029 6.07024 4.48986 6 4.66667 6H8.66667C8.84348 6 9.01305 6.07024 9.13807 6.19526C9.2631 6.32029 9.33333 6.48986 9.33333 6.66667C9.33333 6.84348 9.2631 7.01305 9.13807 7.13807C9.01305 7.2631 8.84348 7.33333 8.66667 7.33333Z" fill="white"/>
<path d="M6.66667 9.33333C6.48986 9.33333 6.32029 9.2631 6.19526 9.13807C6.07024 9.01305 6 8.84348 6 8.66667V4.66667C6 4.48986 6.07024 4.32029 6.19526 4.19526C6.32029 4.07024 6.48986 4 6.66667 4C6.84348 4 7.01305 4.07024 7.13807 4.19526C7.2631 4.32029 7.33333 4.48986 7.33333 4.66667V8.66667C7.33333 8.84348 7.2631 9.01305 7.13807 9.13807C7.01305 9.2631 6.84348 9.33333 6.66667 9.33333Z" fill="white"/>
</svg>
